<?xml version="1.0" encoding="iso-8859-1"?>
<!-- Uploaded to: SVG Repo, www.svgrepo.com, Generator: SVG Repo Mixer Tools -->
<svg fill="#000000" height="800px" width="800px" version="1.1" id="Layer_1" xmlns="http://www.w3.org/2000/svg" xmlns:xlink="http://www.w3.org/1999/xlink" 
	 viewBox="0 0 512.001 512.001" xml:space="preserve">
<g>
	<g>
		<path d="M445.686,191.496l-15.134-20.209c-7.853-10.486-12.178-23.474-12.178-36.574V70.974V40.556V0H326.31v40.556v30.417v63.739
			c0,13.1-4.324,26.088-12.177,36.574L299,191.495c-11.767,15.712-18.248,35.176-18.248,54.808V512h183.18V246.302
			C463.933,226.672,457.452,207.207,445.686,191.496z M356.727,30.417h31.23v10.139h-31.23V30.417z M433.515,481.583H311.17v-84.815
			c16.23,14.592,37.681,23.486,61.173,23.486c23.491,0,44.942-8.893,61.172-23.486V481.583z M372.343,389.835
			c-33.732,0-61.173-27.441-61.173-61.172c0-33.732,27.441-61.173,61.173-61.173c33.73,0,61.172,27.442,61.172,61.173
			C433.515,362.394,406.074,389.835,372.343,389.835z M433.515,260.559c-16.23-14.592-37.681-23.486-61.172-23.486
			c-23.492,0-44.943,8.893-61.173,23.486v-14.257c0-13.101,4.324-26.089,12.177-36.574l15.134-20.209
			c11.765-15.712,18.246-35.176,18.246-54.807V70.974h31.23v63.739c0,19.629,6.481,39.094,18.247,54.807l15.134,20.209
			c7.853,10.485,12.177,23.474,12.177,36.574V260.559z"/>
	</g>
</g>
<g>
	<g>
		<path d="M249.48,211.389l-0.679-15.855c0-0.002,0-0.004,0-0.006l-0.626-14.556h-0.157c-0.684-10.29-1.625-20.619-2.802-30.703
			l-2.333-19.992H54.672l-2.335,19.992c-1.178,10.099-2.119,20.425-2.802,30.703h-0.158l-0.624,14.52
			c0,0.012-0.001,0.023-0.002,0.034l-0.681,15.863h0.209c-0.671,38.869,2.31,77.82,8.897,116.01l1.757,10.188
			c8.981,52.068,10.917,105.133,5.752,157.719l-1.64,16.695h171.462l-1.639-16.695c-5.165-52.585-3.229-105.65,5.752-157.719
			l1.757-10.188c6.587-38.19,9.568-77.141,8.897-116.01H249.48z M81.786,160.692h133.98c0.701,6.707,1.293,13.496,1.767,20.278
			H80.02C80.493,174.194,81.085,167.404,81.786,160.692z M210.402,322.228l-1.757,10.188c-8.495,49.253-10.997,99.349-7.461,149.167
			H96.369c3.536-49.818,1.035-99.915-7.461-149.167l-1.757-10.188c-6.293-36.484-9.128-73.702-8.454-110.839h140.16
			C219.53,248.525,216.695,285.742,210.402,322.228z"/>
	</g>
</g>
</svg>