<?xml version="1.0" encoding="utf-8"?>
<svg id="Layer_1" data-name="Layer 1" xmlns="http://www.w3.org/2000/svg" viewBox="0 0 450 540">
  <path d="M 129.421 364.602 C 123.259 368.429 106.836 366.692 106.836 366.692 C 102.508 365.674 98.271 364.656 94.107 363.71 C 90.943 363.001 87.724 362.565 84.615 361.71 C 81.767 360.975 78.998 359.97 76.34 358.709 C 72.487 356.977 68.828 354.836 65.43 352.326 C 61.311 348.709 57.378 344.885 53.646 340.87 C 51.452 338.689 49.269 336.488 47.1 334.269 C 46.741 333.879 46.44 333.439 46.209 332.96 C 44.39 329.324 42.245 325.887 40.754 322.159 C 39.659 319.006 38.766 315.787 38.081 312.521 C 37.244 309.302 36.262 306.12 35.662 302.865 C 35.154 300.587 34.952 298.25 35.062 295.919 C 35.553 290.117 36.226 284.317 37.08 278.552 C 37.6 275.633 38.317 272.755 39.226 269.933 C 39.828 266.751 40.818 263.654 42.172 260.713 C 45.216 255.464 48.611 250.428 52.338 245.639 C 55.6 241.025 59.397 236.814 63.647 233.091 C 68.976 229.199 74.586 225.712 80.432 222.653 C 82.805 221.357 85.28 220.256 87.833 219.362 C 91.302 217.836 94.884 216.578 98.543 215.597 C 102.233 214.974 105.966 214.632 109.709 214.579 C 113.295 214.283 116.897 214.203 120.492 214.343 C 124.811 214.665 129.11 215.223 133.367 216.016 C 136.457 216.541 139.497 217.319 142.459 218.344 C 146.728 219.622 150.887 221.239 154.898 223.18 C 160.155 226.188 165.253 229.465 170.173 233 C 171.829 234.344 173.264 235.94 174.428 237.728 C 178.301 242.856 182.083 248.057 185.811 253.276 C 186.255 254.289 186.549 255.359 186.684 256.458 C 174.115 257.685 161.897 261.316 150.697 267.15 C 156.243 265.332 161.754 263.259 167.372 261.695 C 172.991 260.131 178.283 259.113 183.738 258.059 C 188.665 257.002 192.094 252.525 191.831 247.493 C 191.467 244.457 190.866 241.438 190.284 238.401 C 189.885 236.346 189.866 233.964 186.648 234.127 C 186.375 234.127 185.429 231.909 185.775 231.4 C 189.866 225.617 188.793 219.489 187.03 213.397 C 186.473 211.827 185.42 210.479 184.029 209.561 C 178.01 205.596 171.918 201.759 169.663 194.268 C 169.421 193.795 169.148 193.34 168.845 192.904 C 168.19 191.539 167.591 190.176 167.027 188.794 C 168.736 188.303 170.663 187.121 172.136 187.466 C 176.355 188.412 180.429 189.994 184.72 191.376 C 183.011 187.976 181.21 184.611 179.611 181.156 C 178.512 178.88 177.611 176.514 176.919 174.083 C 172.955 159.281 177.392 153.807 186.157 147.352 C 186.284 144.605 185.921 142.242 186.702 140.314 C 187.03 139.478 189.685 139.586 191.703 139.168 C 195.34 130.821 195.958 130.404 201.141 133.967 C 209.742 123.966 221.234 120.584 233.872 120.111 C 235.064 120.062 236.224 119.726 237.255 119.13 C 250.966 111.165 266.169 108.019 281.57 106.109 C 286.79 105.454 292.336 107.381 297.719 108.346 C 299.688 108.824 301.752 108.062 302.937 106.418 C 306.141 103.049 310.117 100.51 314.521 99.017 C 321.977 96.835 329.686 97.307 336.342 102.254 C 344.761 108.527 351.145 115.874 351.217 127.403 C 351.217 136.495 356.873 143.605 361.564 150.897 C 362.55 152.19 363.333 153.625 363.892 155.152 C 355.163 155.334 348.38 150.715 341.416 146.497 C 336.979 148.315 336.979 155.334 330.851 155.462 C 330.718 156.498 330.657 157.544 330.669 158.589 C 331.105 165.044 331.996 164.499 324.867 165.864 C 315.63 167.537 316.958 166.754 318.521 175.392 C 318.848 177.101 319.321 178.774 319.503 180.501 C 320.465 191.748 324.646 202.48 331.541 211.416 C 334.505 215.234 335.451 220.616 337.397 225.272 C 337.795 226.346 338.415 227.325 339.215 228.145 C 346.799 235.055 347.344 237.746 342.961 247.384 C 341.361 250.912 337.797 251.985 335.36 248.729 C 331.887 244.092 326.904 243.274 321.958 241.311 C 317.976 251.13 321.067 260.404 323.904 269.769 C 330.796 269.769 337.742 269.46 344.653 269.769 C 350.29 270.122 355.89 270.926 361.401 272.169 C 364.592 273.189 367.679 274.512 370.62 276.116 C 373.602 277.407 376.676 278.552 379.585 279.971 C 381.865 281.109 384.053 282.422 386.132 283.898 C 388.411 285.386 390.542 287.092 392.496 288.99 C 396.596 293.009 400.463 297.261 404.08 301.719 C 407.283 305.662 409.954 310.009 412.026 314.648 C 413.536 318.285 414.772 322.049 416.3 325.723 C 417.426 328.45 417.136 331.76 417.535 334.815 C 417.808 336.906 418.154 338.979 418.463 341.052 C 419.121 344.085 419.503 347.171 419.609 350.271 C 419.481 353.799 418.39 357.273 417.899 360.818 C 417.754 361.964 418.535 363.255 418.318 364.365 C 417.843 367.127 417.125 369.84 416.172 372.476 C 415.099 375.366 413.517 378.076 412.299 380.912 C 411.08 383.75 409.989 387.222 408.517 390.223 C 407.276 392.499 405.859 394.677 404.28 396.733 C 403.245 398.355 402.077 399.888 400.788 401.316 C 397.933 404.261 394.969 407.135 391.932 409.898 C 389.675 412.034 387.243 413.975 384.658 415.7 C 379.566 418.882 374.293 421.81 369.019 424.791 C 367.011 425.843 364.932 426.761 362.801 427.538 C 359.677 428.853 356.469 429.958 353.199 430.847 C 349.866 431.536 346.488 431.98 343.089 432.175 C 340.197 432.448 337.269 432.429 334.36 432.556 C 330.178 432.756 326.104 433.193 321.94 431.429 C 319.23 430.302 315.884 430.701 312.848 430.411 C 312.324 430.45 311.797 430.413 311.284 430.302 C 305.992 427.937 300.9 424.847 295.391 423.3 C 288.808 421.482 284.098 416.991 279.207 412.99 C 274.696 409.353 271.333 404.226 267.551 399.661 C 265.35 397.182 263.36 394.524 261.604 391.715 C 260.111 388.84 258.842 385.854 257.804 382.785 C 256.967 380.604 256.276 378.349 255.53 376.13 C 254.303 373.132 253.288 370.051 252.493 366.911 C 252.01 363.348 251.756 359.759 251.73 356.164 C 251.73 355.673 252.111 355.145 252.057 354.654 C 251.034 347.891 251.55 340.987 253.567 334.451 C 254.513 331.305 254.658 327.923 255.548 324.741 C 256.206 322.244 257.211 319.851 258.531 317.631 C 261.623 312.593 264.95 307.702 268.278 302.829 C 270.047 300.065 272.03 297.444 274.206 294.991 C 276.815 292.356 279.592 289.888 282.516 287.608 C 285.371 285.281 288.372 283.098 291.336 280.88 C 292.016 280.265 292.797 279.774 293.645 279.425 C 297.991 278.116 299.882 275.061 298.809 270.715 C 296.991 263.587 295.354 256.44 293.354 249.348 C 292.19 245.147 290.808 244.529 287.517 247.366 C 283.54 250.695 279.952 254.467 276.824 258.604 C 264.568 275.461 252.548 292.5 240.546 309.521 C 237.328 314.103 233.8 318.104 227.454 319.013 C 230.837 321.019 234.094 323.235 237.201 325.65 C 238.455 326.723 239.655 329.615 239.019 330.633 C 237.684 332.128 235.846 333.079 233.855 333.306 C 232.116 333.448 230.369 333.219 228.726 332.633 C 226.719 332.013 224.537 332.407 222.871 333.688 C 220.718 334.639 218.291 334.762 216.052 334.033 C 211.637 332.724 206.896 333.053 202.704 334.961 C 194.83 338.324 187.284 336.597 182.12 329.505 C 179.01 332.778 176.064 335.961 173.028 339.052 C 171.276 340.923 169.407 342.68 167.426 344.307 C 162.535 348.181 157.698 352.181 152.498 355.582 C 149.2 357.369 145.735 358.824 142.15 359.928 C 138.241 361.437 134.276 362.838 129.421 364.602 Z M 310.429 284.517 C 311.23 282.862 312.085 281.208 312.812 279.516 C 314.012 276.752 315.121 273.952 316.285 271.151 C 314.702 272.388 314.139 274.17 312.938 275.297 C 310.405 277.628 309.444 281.211 310.466 284.499 C 316.539 299.538 316.503 316.303 323.65 331.032 C 323.736 329.965 323.657 328.893 323.413 327.851 C 320.958 317.176 318.74 306.447 315.884 295.882 C 314.793 291.9 312.284 288.299 310.429 284.517 Z M 91.489 335.033 C 91.489 333.815 91.324 332.579 91.198 330.396 L 84.906 337.543 L 88.833 339.361 C 89.87 337.652 90.652 336.306 91.524 334.979 C 90.943 341.362 91.379 341.889 97.725 342.034 C 98.326 338.561 98.671 334.961 99.544 331.542 C 100.671 327.432 99.853 324.759 95.434 323.795 C 94.343 323.249 92.689 321.977 92.252 322.231 C 87.651 325.668 83.251 329.359 78.85 332.942 C 81.523 336.579 83.724 336.397 86.215 333.542 C 89.179 330.177 92.379 327.014 95.471 323.759 C 94.162 327.528 92.834 331.288 91.489 335.033 Z M 114.764 270.06 C 116.873 266.078 119.22 262.223 121.002 258.113 C 124.348 250.439 127.348 242.638 130.494 234.873 C 122.384 232 121.402 232.436 120.019 239.892 C 118.201 249.948 116.528 260.04 114.801 270.114 C 114.104 268.551 113.539 266.934 113.11 265.278 C 111.364 256.016 109.691 246.735 108.09 237.437 C 107.472 233.801 105.345 234.055 102.508 234.71 C 99.09 235.528 100.035 237.364 100.871 239.473 C 104.108 247.512 107.327 255.554 110.527 263.605 C 111.583 266.26 112.655 268.897 113.964 272.115 L 114.764 270.06 Z M 295.009 205.505 C 293.1 201.869 291.59 198.996 289.971 196.122 C 289.335 194.995 288.589 193.268 287.662 193.103 C 280.534 191.795 278.352 183.193 271.169 182.193 C 269.544 181.704 267.865 181.416 266.169 181.338 C 260.877 181.901 255.622 182.847 250.347 183.575 C 246.711 184.047 243.183 184.375 239.601 184.811 C 237.364 185.084 236.691 186.23 237.546 188.449 C 239.11 192.431 240.474 196.486 242.11 200.432 C 242.665 201.632 243.493 202.685 244.528 203.505 C 251.239 209.105 252.603 216.816 248.166 224.399 C 246.856 226.599 245.437 228.745 243.584 231.673 C 257.603 227.581 270.697 223.872 283.589 219.889 C 286.426 219.016 289.044 217.289 286.499 213.36 C 285.189 211.361 286.08 209.561 288.408 208.578 C 290.735 207.597 292.972 206.469 294.99 205.505 L 295.009 205.505 Z M 271.242 112.346 L 272.569 114.274 C 270.151 116.583 267.841 119.02 265.295 121.184 C 262.749 123.348 260.367 124.821 258.022 126.639 C 255.331 128.749 252.749 131.003 250.093 133.149 C 246.869 135.46 243.801 137.981 240.91 140.696 C 239.911 142.258 239.795 144.228 240.601 145.896 C 245.474 152.225 250.493 158.48 255.967 164.281 C 259.268 167.872 264.489 168.962 268.951 166.99 C 272.133 165.754 275.134 164.063 278.843 162.263 L 265.386 153.171 L 269.024 151.079 L 254.785 147.042 L 255.203 145.006 L 267.078 146.096 L 267.078 145.696 L 247.693 137.568 C 248.916 136.213 250.617 135.386 252.439 135.258 C 257.32 135.492 262.18 136.05 266.987 136.931 C 269.678 137.477 272.042 137.75 274.06 135.804 C 276.988 132.949 279.771 129.931 283.316 126.258 L 285.862 136.459 C 290.735 130.712 286.808 121.421 292.263 114.074 C 293.463 118.456 294.408 121.948 295.608 126.349 C 296.7 122.366 297.537 119.366 298.373 116.365 L 299.573 116.583 C 302.144 123.274 303.379 130.404 303.21 137.568 C 303.324 139.183 303.556 140.787 303.901 142.368 C 304.531 138.341 304.731 134.257 304.501 130.185 C 303.664 116.602 300.392 112.564 287.426 108.891 C 285.408 108.327 283.08 107.381 281.262 107.91 C 269.187 111.328 257.221 115.074 245.238 118.82 C 243.192 119.66 241.21 120.651 239.31 121.784 C 245.511 123.857 250.221 123.602 255.203 120.074 C 260.185 116.546 265.896 114.856 271.242 112.346 Z M 275.57 237.546 L 274.878 236.691 C 268.642 239.292 262.422 241.983 256.13 244.474 C 254.242 245.122 252.958 246.879 252.912 248.875 C 251.675 256.421 249.275 263.423 242.128 267.642 C 235.382 271.57 228.49 275.261 221.743 279.225 C 220.203 279.991 218.934 281.209 218.107 282.716 C 215.952 287.31 214.293 292.12 213.16 297.064 C 212.888 300.033 213.819 302.989 215.742 305.266 C 216.742 306.392 220.889 306.011 222.689 304.865 C 226.419 302.579 229.728 299.67 232.473 296.264 C 241.456 284.48 250.039 272.388 258.768 260.404 L 275.57 237.546 Z M 279.661 301.374 C 279.279 301.719 278.879 302.065 278.515 302.447 C 249.62 333.67 256.894 384.386 293.39 406.098 C 328.776 427.008 374.42 415.099 395.078 379.567 C 410.78 352.68 405.65 318.487 382.749 297.392 C 381.131 295.882 379.293 294.573 377.566 293.172 C 411.08 323.359 405.861 367.202 382.385 392.678 C 357.509 419.664 317.685 422.009 288.298 398.133 C 263.114 377.749 250.966 338.252 279.661 301.374 Z M 97.198 236.565 C 95.653 237.019 94.379 237.31 93.162 237.783 C 88.288 239.601 88.197 239.892 90.27 244.674 C 94.029 253.39 97.774 262.109 101.508 270.824 C 102.544 273.243 103.618 275.133 106.855 273.807 C 110.091 272.479 111.473 270.933 109.982 267.46 C 107.708 262.186 105.618 256.84 103.418 251.53 C 101.399 246.62 99.344 241.71 97.198 236.565 Z M 327.523 375.349 C 328.705 380.804 329.76 385.258 330.705 389.805 C 331.65 394.351 332.524 398.897 333.433 403.516 C 334.651 409.698 336.306 410.79 342.325 408.735 C 343.394 408.121 344.079 407.003 344.143 405.771 C 342.125 396.533 339.961 387.332 337.579 378.185 C 336.986 376.837 335.806 375.837 334.379 375.475 C 332.103 375.201 329.807 375.157 327.523 375.349 Z M 310.957 226.018 C 310.048 226.199 308.483 226.563 306.902 226.745 C 303.61 227.127 301.737 228.691 303.447 231.964 C 306.211 237.255 305.265 244.474 311.72 247.948 C 312.466 248.33 312.539 250.057 312.829 251.185 C 313.739 254.64 314.502 258.15 315.576 261.568 C 315.812 262.314 317.103 262.713 317.885 263.386 C 318.195 262.496 318.976 261.459 318.74 260.75 C 316.175 252.967 317.485 245.42 320.249 238.074 C 322.376 232.436 314.793 232.146 314.921 227.617 C 314.921 227.163 313.302 226.599 312.411 226.127 C 312.193 225.927 311.884 226.018 310.939 226.018 L 310.957 226.018 Z M 99.999 306.829 C 97.799 304.065 96.107 300.1 94.253 300.028 C 91.743 300.028 89.106 302.81 86.542 304.429 C 85.978 304.774 85.433 305.175 84.869 305.538 L 65.285 318.267 C 66.321 319.903 67.212 321.213 67.995 322.559 C 69.576 325.323 71.267 325.814 73.977 323.613 C 77.042 321.258 80.242 319.085 83.56 317.104 C 88.907 313.812 94.307 310.466 99.999 306.829 Z M 96.434 280.607 C 95.944 280.225 95.67 279.843 95.325 279.752 C 84.651 276.897 74.013 273.988 63.302 271.26 C 59.848 270.37 60.102 273.57 59.301 275.479 C 58.502 277.389 59.301 278.625 61.412 279.116 C 69.776 281.299 78.104 283.644 86.488 285.844 C 93.361 287.717 93.379 287.645 96.434 280.607 Z M 143.86 238.91 C 141.037 237.719 138.154 236.676 135.222 235.782 C 134.038 235.738 132.914 236.301 132.239 237.273 C 127.912 247.153 123.717 257.081 119.656 267.059 C 119.22 268.114 119.965 269.641 120.184 270.969 C 121.402 270.478 123.165 270.351 123.82 269.442 C 130.367 259.55 136.786 249.694 143.86 238.91 Z M 352.544 367.783 C 352.799 368.365 352.817 368.711 353 368.838 C 361.51 375.002 369.983 381.185 378.548 387.278 C 381.439 389.332 382.058 386.113 383.367 384.822 C 384.676 383.531 385.186 381.604 383.112 380.167 C 379.384 377.621 375.657 375.039 371.911 372.511 C 366.983 369.165 362.055 365.856 356.981 362.437 L 352.544 367.783 Z M 391.604 328.541 C 390.041 321.268 389.096 320.831 382.786 323.377 C 376.475 325.922 369.892 328.432 363.473 331.069 C 360.327 332.36 357.291 333.906 354.181 335.343 C 355.508 338.598 357.472 339.361 360.164 338.507 L 391.604 328.541 Z M 294.536 394.006 L 319.521 370.638 C 318.705 370.229 317.927 369.747 317.194 369.202 C 313.357 365.565 313.393 365.565 309.557 369.475 C 304.392 374.657 299.21 379.84 293.936 384.913 C 292.285 386.293 290.533 387.552 288.699 388.678 L 294.536 394.006 Z M 377.894 350.199 L 377.894 350.909 C 382.84 350.909 387.768 350.781 392.696 350.909 C 396.933 351.054 396.024 348.144 396.169 345.708 C 396.332 342.744 394.787 342.071 392.168 342.343 C 382.476 343.18 372.784 343.907 363.074 344.617 C 361.255 344.762 359.637 344.816 359.637 347.381 C 359.637 349.945 361.237 350.126 363.074 350.126 L 377.894 350.199 Z M 374.912 305.411 L 348.162 331.724 C 350.544 332.015 352.89 333.051 353.835 332.306 C 362.692 325.304 371.311 317.976 380.349 310.484 L 374.912 305.411 Z M 371.857 303.502 C 370.62 302.574 369.529 301.864 368.547 301.028 C 365.747 298.683 363.746 299.21 361.783 302.283 C 359.818 305.357 357.127 308.466 354.799 311.557 L 342.179 328.341 L 342.78 329.469 C 344.416 329.087 346.58 329.268 347.598 328.268 C 355.708 320.25 363.619 311.994 371.838 303.537 L 371.857 303.502 Z M 347.162 407.735 C 348.944 407.473 350.699 407.04 352.399 406.444 C 353.181 406.062 354.217 404.625 353.981 403.879 C 351.399 394.514 348.671 385.204 345.87 375.911 C 345.362 374.294 344.471 372.711 342.052 373.73 C 340.135 374.152 339.1 376.239 339.925 378.022 C 341.452 383.477 342.743 388.823 344.071 394.26 C 345.107 398.661 346.07 403.043 347.144 407.771 L 347.162 407.735 Z M 277.552 361.382 C 281.552 360.727 284.444 360.2 287.354 359.764 C 293.681 358.818 300.082 357.945 306.356 356.964 C 308.266 356.672 310.757 355.745 308.793 353.527 C 307.084 351.725 304.712 350.699 302.228 350.69 C 293.991 351.363 285.862 352.654 277.588 353.781 C 274.842 354.146 275.115 356.381 275.533 358.128 C 276.014 359.32 276.697 360.422 277.552 361.382 Z M 337.56 132.003 L 338.634 131.385 C 335.833 126.512 333.651 121.093 330.014 116.947 C 327.441 114.126 325.483 110.8 324.268 107.182 C 323.995 105.743 323.484 104.362 322.758 103.091 C 321.937 102.045 320.72 101.386 319.395 101.272 C 318.612 101.272 317.249 102.854 317.158 103.799 C 316.592 109.235 316.362 114.701 316.466 120.165 C 316.721 125.785 317.776 131.367 318.54 137.495 L 324.686 134.695 C 317.776 127.184 317.049 118.62 320.067 109.236 C 321.534 113.819 322.995 118.401 324.45 122.984 L 325.032 122.803 L 325.468 117.001 L 327.141 116.456 L 337.56 132.003 Z M 359.891 353.472 C 365.637 356.582 370.202 360.746 376.876 360.473 C 381.131 360.273 385.403 360.582 389.604 360.601 C 394.969 360.601 395.587 359.909 395.241 353.472 L 359.891 353.472 Z M 394.678 339.561 C 394.678 331.269 393.496 330.36 386.549 332.56 C 378.53 335.106 370.456 337.489 362.419 339.98 C 361.019 340.416 359.672 341.071 358.309 341.616 L 358.672 343.434 C 370.711 343.634 382.513 340.852 394.678 339.561 Z M 114.019 324.268 C 111.327 324.414 109.364 324.668 107.418 324.577 C 103.89 324.414 102.435 326.141 101.963 329.505 C 101.603 332.818 100.995 336.102 100.144 339.325 C 99.326 342.397 100.144 343.889 103.381 344.035 C 104.818 344.276 106.271 344.404 107.727 344.417 C 108.691 344.289 110.182 343.453 110.346 342.689 C 111.746 336.816 112.783 330.832 114.019 324.304 L 114.019 324.268 Z M 160.462 252.276 C 159.571 251.311 158.643 250.221 157.607 249.221 C 153.97 245.583 153.806 245.583 150.533 249.348 C 146.896 253.567 143.259 257.81 139.623 262.077 C 137.314 264.823 135.095 267.66 132.84 270.461 C 142.769 265.332 153.77 262.223 160.462 252.276 Z M 141.005 280.389 L 141.423 282.607 C 145.957 282.962 150.51 282.962 155.043 282.607 C 160.254 281.536 165.406 280.202 170.481 278.607 C 173.1 277.934 173.282 276.298 172.882 274.061 C 172.482 271.824 171.173 271.115 168.899 271.642 C 165.408 272.479 161.754 272.752 158.371 273.861 C 152.498 275.716 146.787 278.098 141.005 280.298 L 141.005 280.389 Z M 386.495 380.404 C 387.404 378.821 388.022 377.494 388.859 376.33 C 390.895 373.494 389.877 371.947 387.041 370.566 C 383.404 368.747 379.766 366.783 376.13 364.656 C 371.202 361.692 366.001 361.328 359.564 362.183 L 386.495 380.404 Z M 306.884 359.019 C 297.281 360.582 288.099 362.018 278.988 363.747 C 278.243 363.873 277.17 366.275 277.534 367.384 C 278.042 369.202 277.534 372.839 280.862 372.184 C 290.39 369.966 300.518 368.874 306.884 358.946 L 306.884 359.019 Z M 343.252 293.245 C 340.977 292.969 338.684 292.896 336.397 293.027 C 335.488 293.154 334.051 294.554 334.069 295.337 C 334.288 305.175 334.705 314.994 335.106 324.813 C 335.106 325.141 335.469 325.45 336.033 326.378 C 340.597 315.557 340.088 304.338 343.197 293.172 L 343.252 293.245 Z M 151.897 244.493 C 151.188 243.893 150.624 243.348 150.079 242.892 C 145.969 239.965 145.969 239.965 143.132 244.257 C 140.295 248.548 137.077 253.348 134.04 257.968 C 131.458 261.95 128.948 265.987 126.42 270.006 L 127.184 271.133 C 128.239 270.678 129.64 270.515 130.33 269.732 C 137.477 261.495 144.533 253.149 151.897 244.493 Z M 361.891 298.392 C 356.436 294.991 355.69 295.155 353.017 299.555 C 349.835 304.811 346.452 309.939 343.453 315.303 C 341.179 319.358 339.379 323.687 337.36 327.905 L 338.851 328.796 C 347.089 319.231 353.909 308.647 361.891 298.392 Z M 307.793 346.708 C 297.027 341.67 287.007 344.235 277.189 344.289 C 276.534 344.289 275.624 347.672 275.369 349.526 C 275.369 350.09 277.352 351.527 278.315 351.436 C 286.644 350.672 294.972 349.617 303.283 348.617 C 304.854 348.157 306.369 347.515 307.793 346.708 Z M 91.016 299.301 L 90.688 297.791 C 88.615 297.9 86.288 297.427 84.524 298.21 C 77.104 301.538 69.831 305.192 62.575 308.866 C 61.851 309.493 61.503 310.448 61.648 311.393 C 62.344 313.179 63.184 314.907 64.157 316.558 L 91.016 299.301 Z M 156.97 235.437 C 130.903 215.284 94.009 217.265 70.249 240.092 C 98.689 219.871 127.494 218.58 156.97 235.437 Z M 378.822 390.259 C 368.401 380.821 351.908 370.057 349.726 370.602 L 373.257 394.951 L 378.822 390.259 Z M 94.489 277.225 C 91.452 273.169 88.651 270.533 84.778 269.17 C 79.759 267.35 74.667 265.787 69.649 264.023 C 64.63 262.259 64.066 262.368 62.521 268.623 L 94.489 277.225 Z M 58.83 280.861 C 56.556 285.899 56.793 287.135 60.193 287.681 C 69.407 289.136 78.65 290.494 87.924 291.755 C 89.497 291.794 91.068 291.672 92.615 291.391 L 92.743 289.79 L 58.83 280.861 Z M 277.879 333.323 C 288.008 336.287 296.282 342.707 306.593 342.616 L 307.32 341.016 L 281.407 326.304 C 280.244 328.65 279.224 330.669 277.879 333.323 Z M 324.741 374.238 L 323.595 374.366 C 323.193 375.734 322.955 377.143 322.886 378.567 C 323.522 387.75 324.322 396.933 325.013 406.098 C 325.268 409.426 327.686 409.426 329.959 409.28 C 332.778 409.117 332.014 406.899 331.778 405.335 C 329.972 396.291 328.11 387.271 326.195 378.276 C 325.799 376.899 325.311 375.551 324.741 374.238 Z M 148.606 319.686 L 131.658 304.356 L 125.93 309.812 C 130.894 318.831 138.731 321.14 148.606 319.558 L 148.606 319.686 Z M 72.413 327.432 C 76.85 332.505 76.923 332.56 81.305 328.905 C 86.761 324.323 92.216 319.486 97.671 315.049 C 99.871 313.23 100.126 312.012 98.453 309.939 L 72.413 327.432 Z M 79.432 246.584 C 73.013 251.148 73.049 251.112 78.05 256.276 C 81.396 259.713 84.433 263.55 87.979 266.696 C 90.129 268.293 92.445 269.653 94.889 270.752 L 95.579 269.66 L 79.432 246.584 Z M 86.705 295.3 L 86.833 294.009 C 85.313 293.507 83.763 293.095 82.196 292.773 C 75.595 291.809 68.976 290.954 62.356 290.099 C 60.865 289.917 58.266 289.735 58.01 290.336 C 57.254 292.012 57.189 293.92 57.829 295.646 C 58.338 296.646 60.72 297.119 62.248 297.101 C 67.448 297.101 72.667 296.791 77.85 296.428 C 80.742 296.173 83.687 295.628 86.633 295.246 L 86.705 295.3 Z M 320.703 377.567 L 320.139 377.367 L 303.773 401.279 L 312.556 405.407 L 320.703 377.567 Z M 306.847 338.142 C 307.592 333.887 306.392 331.269 302.683 329.396 C 298.045 327.068 293.718 324.141 289.226 321.485 C 284.735 318.831 284.644 319.14 282.971 324.323 L 306.847 338.142 Z M 137.55 306.284 C 141.732 310.546 146.132 314.589 150.734 318.395 C 152.806 319.958 156.189 319.977 158.934 320.322 C 159.626 320.413 160.753 319.25 161.171 318.395 C 161.407 317.885 160.771 316.685 160.207 316.139 C 153.897 310.011 146.078 307.266 137.477 306.229 L 137.55 306.284 Z M 307.32 369.148 L 306.756 368.165 C 296.227 368.002 291.917 377.476 284.225 382.513 L 288.281 387.332 L 307.32 369.148 Z M 339.634 142.442 C 336.362 141.535 333.042 140.818 329.686 140.296 C 324.886 139.841 323.068 141.969 322.667 147.679 C 322.304 152.625 325.995 149.879 327.922 150.461 C 328.304 150.57 328.741 150.461 329.105 150.661 C 331.832 151.824 333.687 150.661 335.215 148.478 C 336.342 146.805 337.56 145.26 339.634 142.442 Z M 113.892 255.913 L 115.146 255.913 C 116.51 249.167 117.965 242.438 119.165 235.673 C 119.027 234.607 118.334 233.695 117.346 233.273 C 114.581 233.086 111.805 233.05 109.036 233.164 C 110.854 241.51 112.364 248.638 113.892 255.913 Z M 364.838 400.497 L 350.017 380.022 C 351.229 386.417 352.766 392.747 354.618 398.988 C 356.327 405.371 356.927 405.643 362.727 402.134 C 363.255 401.789 363.746 401.388 364.819 400.497 L 364.838 400.497 Z M 186.466 174.556 C 198.049 178.937 206.16 178.792 212.106 174.41 C 207.924 172.992 203.96 171.391 205.905 165.682 L 199.904 164.572 C 200.668 166.063 202.45 168.082 201.995 168.919 C 200.913 170.511 199.304 171.671 197.449 172.191 C 194.212 173.209 190.794 173.664 186.466 174.556 Z M 381.894 311.812 L 361.255 329.251 L 361.564 329.741 L 387.313 319.049 L 381.894 311.812 Z M 112.492 344.217 C 118.783 345.253 119.529 344.708 120.129 339.179 C 120.547 335.215 121.184 331.251 121.347 327.269 C 121.131 326.032 120.292 324.993 119.129 324.523 C 118.001 324.523 115.892 325.414 115.71 326.341 C 114.419 332.288 113.51 338.233 112.492 344.217 Z M 123.857 324.631 C 125.912 329.832 127.767 334.797 129.894 339.634 C 130.561 340.487 131.618 340.94 132.695 340.834 C 135.028 339.912 137.304 338.856 139.514 337.67 C 136.368 333.651 133.513 330.396 131.003 326.759 C 129.312 324.25 127.312 323.45 123.857 324.631 Z M 321.74 383.931 L 320.94 384.058 C 319.121 390.423 317.303 396.788 315.485 403.189 C 314.758 405.571 315.485 406.698 317.83 407.099 C 319.486 407.389 321.122 407.735 323.631 408.225 C 322.922 399.679 322.322 391.805 321.74 383.931 Z M 332.069 323.795 L 332.559 323.559 C 332.16 314.466 331.687 305.483 331.359 296.446 C 331.25 293.536 329.541 293.337 327.304 293.554 C 325.068 293.773 324.577 294.827 325.086 296.791 C 327.426 305.798 329.754 314.799 332.069 323.795 Z M 301.629 399.697 L 317.994 376.421 L 317.321 375.876 L 296.191 395.788 L 301.629 399.697 Z M 348.181 372.294 L 347.344 373.166 L 366.819 399.843 L 370.456 396.933 L 348.181 372.294 Z M 299.483 306.193 C 292.208 309.829 292.208 310.593 297.391 315.285 C 298.973 316.703 300.483 318.194 302.083 319.595 C 303.683 320.995 304.938 321.958 306.628 323.377 C 309.011 315.067 301.864 311.884 299.483 306.21 L 299.483 306.193 Z M 97.871 268.842 L 98.398 268.641 L 86.397 241.365 C 84.451 243.183 79.759 242.71 82.524 246.82 C 87.488 254.331 92.725 261.532 97.871 268.842 Z M 301.809 225.199 L 312.903 222.853 C 311.084 219.689 309.266 216.888 307.702 213.979 C 306.52 211.797 305.246 212.16 303.556 213.325 C 299.865 216.016 299.427 218.489 301.809 225.181 L 301.809 225.199 Z M 353.708 294.936 C 351.882 294.429 350.014 294.089 348.126 293.918 C 347.053 293.918 345.217 294.609 345.052 295.3 C 343.634 301.391 342.507 307.557 341.288 313.702 L 342.234 313.976 L 353.708 294.936 Z M 60.03 308.048 L 78.214 298.646 C 71.703 298.646 66.412 298.518 61.121 298.737 C 60.121 298.737 58.338 300.191 58.357 300.92 C 58.697 303.336 59.256 305.714 60.03 308.03 L 60.03 308.048 Z M 291.245 312.557 C 289.681 314.375 288.389 315.722 286.899 317.358 L 306.229 328.541 L 307.247 327.122 L 291.245 312.557 Z M 66.231 260.113 L 83.832 266.569 L 84.214 265.805 L 71.122 254.185 L 66.231 260.113 Z M 131.13 324.104 C 133.695 327.504 135.513 330.069 137.477 332.524 C 141.387 337.415 141.532 337.398 146.805 332.978 C 142.042 330.16 139.514 323.741 131.13 324.104 Z M 230.781 133.932 L 231.236 133.44 C 230.416 130.787 229.401 128.197 228.199 125.694 C 227.339 124.552 225.993 123.878 224.562 123.875 C 223.308 123.875 220.925 125.494 221.071 126.021 C 221.962 130.513 223.29 134.913 224.49 139.332 L 226.144 138.932 L 225.017 128.749 L 230.781 133.932 Z M 376.093 362.437 L 391.259 371.02 C 392.314 368.111 393.242 365.565 394.369 362.437 L 376.093 362.437 Z M 134.44 283.862 L 133.967 284.899 C 134.984 285.722 136.112 286.401 137.314 286.917 C 146.041 289.354 154.789 291.664 163.553 293.918 C 164.509 293.949 165.46 293.79 166.354 293.445 L 166.245 292.209 L 134.44 283.862 Z M 172.627 280.08 L 155.462 284.517 C 158.88 285.904 162.461 286.857 166.117 287.353 C 170.627 288.045 172.955 285.517 172.627 280.08 Z M 237.837 304.593 L 260.241 273.788 C 253.93 278.37 237.092 301.046 237.837 304.593 Z M 135.131 293.3 L 163.989 300.573 C 161.644 296.773 140.223 291.408 135.131 293.3 Z M 64.957 255.913 C 53.901 269.697 50.865 285.444 54.283 302.628 C 52.046 285.753 56.029 270.333 64.957 255.913 Z M 141.005 323.904 L 140.768 324.831 L 148.824 331.796 L 156.425 324.904 L 141.005 323.904 Z M 292.082 341.852 L 292.208 341.18 C 288.135 339.579 284.08 337.906 279.97 336.452 C 279.17 336.161 277.57 336.452 277.243 336.942 C 276.591 338.078 276.312 339.386 276.443 340.689 C 276.443 341.162 278.098 341.78 278.988 341.798 C 283.353 341.926 287.717 341.852 292.082 341.852 Z M 231.381 192.83 C 229.309 191.303 228.108 189.849 226.636 189.449 C 223.78 188.648 215.325 193.558 213.906 196.486 L 231.381 192.83 Z M 123.365 329.487 C 122.638 334.015 122.074 337.379 121.547 340.725 C 121.165 343.107 122.238 343.98 124.475 343.489 C 125.712 343.198 126.875 342.707 128.475 342.18 L 123.365 329.487 Z M 290.099 187.648 L 291.117 188.757 C 292.976 186.919 294.678 184.929 296.209 182.812 C 298.9 178.392 297.773 176.119 292.736 174.901 C 290.791 174.428 288.899 173.792 286.935 173.41 C 286.208 173.406 285.484 173.542 284.807 173.81 C 286.531 174.987 288.436 175.877 290.444 176.446 C 295.172 178.156 296.027 181.538 292.663 185.32 C 291.853 186.131 290.996 186.895 290.099 187.612 L 290.099 187.648 Z M 204.541 302.392 L 206.542 303.065 C 209.196 295.623 211.864 288.185 214.542 280.752 L 213.088 280.225 C 209.73 287.395 206.872 294.789 204.541 302.356 L 204.541 302.392 Z M 345.271 126.149 C 346.522 118.42 343.027 110.692 336.397 106.528 L 345.271 126.149 Z M 283.444 380.73 L 291.881 372.912 L 291.245 372.075 L 280.043 374.839 L 283.444 380.73 Z M 268.26 234.91 L 267.95 234.055 L 240.583 244.038 L 241.273 245.856 L 268.26 234.91 Z M 194.285 265.933 C 203.231 270.242 205.996 269.715 208.36 263.987 L 194.285 265.933 Z M 105.181 319.576 L 105.473 320.395 L 115.456 319.795 L 114.764 313.248 L 105.181 319.576 Z M 197.104 327.595 C 193.285 323.832 189.466 323.65 187.52 327.105 C 192.321 330.923 194.394 331.032 197.177 327.595 L 197.104 327.595 Z M 121.511 312.121 C 117.292 312.411 116.728 314.848 117.346 317.74 C 117.965 320.632 120.129 319.74 122.347 319.322 L 121.511 312.121 Z M 305.447 302.12 C 300.683 304.392 301.519 307.575 308.175 313.376 C 307.266 309.321 306.429 305.902 305.519 302.12 L 305.447 302.12 Z M 328.232 357.346 C 322.94 356.381 320.285 357.546 319.139 361.165 C 322.724 362.499 326.728 360.83 328.304 357.346 L 328.232 357.346 Z M 284.371 169.737 C 277.66 166.246 274.024 172.391 269.042 172.737 L 269.332 174.083 L 284.371 169.737 Z M 199.868 230.127 C 202.377 224.09 201.686 219.744 197.231 215.58 C 198.122 220.544 198.904 224.853 199.868 230.127 Z M 94.398 349.781 C 100.871 352.217 114.401 352.799 119.747 351.126 L 94.398 349.781 Z M 343.525 347.854 L 353.581 349.581 C 352.035 345.016 349.78 344.617 343.453 347.854 L 343.525 347.854 Z M 303.792 365.31 L 304.174 366.42 L 312.938 364.001 L 310.321 360.256 L 303.792 365.31 Z M 328.104 213.561 C 326.904 218.27 323.977 216.853 321.14 216.944 L 330.851 220.325 L 331.541 219.416 L 328.104 213.561 Z M 304.773 251.985 L 303.829 252.131 C 305.416 258.022 306.993 263.913 308.557 269.806 L 309.774 269.46 C 308.052 263.641 306.362 257.817 304.701 251.985 L 304.773 251.985 Z M 328.414 368.365 L 328.741 369.966 C 330.268 369.82 332.378 370.22 333.196 369.365 C 334.36 368.238 334.56 366.147 335.178 364.456 L 334.396 364.129 L 328.414 368.365 Z M 346.508 354.454 L 351.472 359.473 C 352.799 354.909 351.835 353.836 346.471 354.436 L 346.508 354.454 Z M 155.57 268.46 L 155.752 269.023 L 170.064 265.551 L 169.663 264.15 L 155.57 268.46 Z M 324.104 162.08 L 316.921 152.989 C 318.376 156.625 319.503 159.39 320.721 162.39 L 324.104 162.08 Z M 324.813 336.961 C 330.014 342.562 330.541 344.053 328.45 347.744 C 329.395 347.126 330.76 346.162 330.65 345.38 C 330.305 341.598 328.85 338.288 324.867 336.942 L 324.813 336.961 Z M 124.784 313.721 C 125.657 319.649 126.494 320.304 131.003 319.176 L 124.784 313.721 Z M 157.516 259.168 L 157.716 260.059 L 164.772 257.367 L 162.044 254.422 L 157.516 259.168 Z M 346.816 337.361 C 342.616 335.543 341.161 336.579 341.125 341.416 L 346.816 337.361 Z M 340.743 365.802 L 341.815 365.802 C 342.416 364.823 342.857 363.754 343.125 362.637 C 343.125 361.929 342.252 361.165 341.78 360.419 C 340.985 361.259 340.334 362.222 339.852 363.274 C 339.58 364.001 340.343 365.019 340.67 365.783 L 340.743 365.802 Z M 359.891 355.927 C 359.728 357.236 359.582 358.31 359.436 359.564 L 366.619 359.564 L 359.891 355.927 Z M 219.434 154.08 L 219.98 153.497 L 213.507 147.46 L 213.379 147.642 L 219.434 154.08 Z M 97.944 277.734 L 99.344 276.48 C 99.053 273.551 96.325 273.351 93.452 273.224 L 97.944 277.734 Z M 188.611 203.614 L 182.447 203.178 C 184.611 207.397 185.175 207.451 188.611 203.633 L 188.611 203.614 Z M 250.911 234.855 L 251.02 234.055 L 239.783 237.219 L 240.128 238.401 L 250.911 234.855 Z M 158.407 311.684 L 158.025 312.339 L 163.353 314.848 L 164.045 313.157 L 158.407 311.684 Z M 244.638 215.907 L 242.601 215.671 L 242.219 221.526 L 243.82 221.69 L 244.638 215.907 Z M 240.674 206.996 L 240.674 206.16 L 228.053 205.141 L 228.053 205.814 L 240.674 206.996 Z M 207.942 130.767 C 203.377 133.858 203.25 134.277 205.596 137.386 C 206.377 135.386 207.087 133.422 208.015 130.786 L 207.942 130.767 Z" style=""/>
</svg>